<?xml version="1.0" encoding="UTF-8" standalone="no"?>
<!-- Created with Inkscape (http://www.inkscape.org/) -->

<svg
   xmlns:dc="http://purl.org/dc/elements/1.1/"
   xmlns:cc="http://creativecommons.org/ns#"
   xmlns:rdf="http://www.w3.org/1999/02/22-rdf-syntax-ns#"
   xmlns:svg="http://www.w3.org/2000/svg"
   xmlns="http://www.w3.org/2000/svg"
   xmlns:sodipodi="http://sodipodi.sourceforge.net/DTD/sodipodi-0.dtd"
   xmlns:inkscape="http://www.inkscape.org/namespaces/inkscape"
   width="1000px"
   height="1000px"
   viewBox="0 0 1000 1000"
   version="1.1"
   id="SVGRoot"
   inkscape:export-filename="C:\Users\Greg\Documents\Greg's Docs\ShamiWorks\ShamiTab\assets\favicon.png"
   inkscape:export-xdpi="3.0719998"
   inkscape:export-ydpi="3.0719998"
   sodipodi:docname="ShamiWorks logo.svg"
   inkscape:version="0.92.4 (5da689c313, 2019-01-14)">
  <defs
     id="defs10" />
  <sodipodi:namedview
     id="base"
     pagecolor="#ffffff"
     bordercolor="#666666"
     borderopacity="1.0"
     inkscape:pageopacity="0.0"
     inkscape:pageshadow="2"
     inkscape:zoom="0.256"
     inkscape:cx="1570.3125"
     inkscape:cy="803.83495"
     inkscape:document-units="px"
     inkscape:current-layer="layer3"
     showgrid="false"
     inkscape:window-width="1920"
     inkscape:window-height="1017"
     inkscape:window-x="-8"
     inkscape:window-y="-8"
     inkscape:window-maximized="1"
     showguides="true"
     inkscape:guide-bbox="true"
     inkscape:snap-grids="true">
    <inkscape:grid
       type="xygrid"
       id="grid23" />
  </sodipodi:namedview>
  <metadata
     id="metadata13">
    <rdf:RDF>
      <cc:Work
         rdf:about="">
        <dc:format>image/svg+xml</dc:format>
        <dc:type
           rdf:resource="http://purl.org/dc/dcmitype/StillImage" />
        <dc:title></dc:title>
      </cc:Work>
    </rdf:RDF>
  </metadata>
  <g
     inkscape:label="Layer 1"
     inkscape:groupmode="layer"
     id="layer1">
    <path
       style="fill:#000000;stroke-width:2.79411769"
       d="m 80.882363,80.882363 c 0,0 139.705877,-55.882352 419.117637,-55.882352 279.41176,0 419.11764,55.882352 419.11764,55.882352 0,0 55.88235,139.705877 55.88235,419.056647 0,279.35076 -55.88235,419.17863 -55.88235,419.17863 0,0 -139.70588,55.88235 -419.47707,55.88235 -279.7712,0 -418.758208,-55.88235 -418.758208,-55.88235 0,0 -55.882351,-139.82787 -55.882351,-419.17863 0,-279.35077 55.882351,-419.056648 55.882352,-419.056647 z"
       id="rect25"
       inkscape:connector-curvature="0"
       sodipodi:nodetypes="czczczczc" />
  </g>
  <g
     inkscape:groupmode="layer"
     id="layer2"
     inkscape:label="Layer 2">
    <path
       sodipodi:nodetypes="czczczczc"
       inkscape:connector-curvature="0"
       id="path23"
       d="m 122.314,117.44004 c 0,0 125.896,-51.00799 377.686,-51.00799 251.79,0 377.686,51.00799 377.686,51.00799 0,0 50.358,127.51999 50.358,382.50429 0,254.98429 -50.358,382.61563 -50.358,382.61563 0,0 -125.896,51.00799 -378.01,51.00799 -252.114,0 -377.362,-51.00799 -377.362,-51.00799 0,0 -50.358,-127.63134 -50.358,-382.61563 0,-254.9843 50.358,-382.5043 50.358,-382.50429 z"
       style="fill:#ffffff;stroke-width:2.53409982" />
  </g>
  <g
     inkscape:groupmode="layer"
     id="layer3"
     inkscape:label="Layer 3">
    <text
       xml:space="preserve"
       style="font-style:normal;font-weight:normal;font-size:844.8125px;line-height:1.25;font-family:sans-serif;letter-spacing:0px;word-spacing:0px;fill:#000000;fill-opacity:1;stroke:none;stroke-width:8.80013084"
       x="84.255241"
       y="811.53302"
       id="text46"
       transform="scale(0.98444769,1.015798)"><tspan
         sodipodi:role="line"
         id="tspan44"
         x="84.255241"
         y="811.53302"
         style="font-style:normal;font-variant:normal;font-weight:normal;font-stretch:normal;font-family:'UD Digi Kyokasho NK-B';-inkscape-font-specification:'UD Digi Kyokasho NK-B';fill:#000000;stroke-width:8.80013084">三</tspan></text>
  </g>
  <g
     inkscape:groupmode="layer"
     id="layer4"
     inkscape:label="Layer 4" />
</svg>
